<?xml version="1.0" standalone="no"?>
<!DOCTYPE svg PUBLIC "-//W3C//DTD SVG 20010904//EN"
 "http://www.w3.org/TR/2001/REC-SVG-20010904/DTD/svg10.dtd">
<svg version="1.0" xmlns="http://www.w3.org/2000/svg"
 width="378.000000pt" height="379.000000pt" viewBox="0 0 378.000000 379.000000"
 preserveAspectRatio="xMidYMid meet">
<metadata>
Created by potrace 1.16, written by Peter Selinger 2001-2019
</metadata>
<g transform="translate(0.000000,379.000000) scale(0.100000,-0.100000)"
fill="#000000" stroke="none">
<path d="M1789 3544 l-77 -45 57 -84 c31 -46 59 -84 62 -85 3 0 29 50 57 110
l51 111 -32 19 c-18 11 -34 20 -37 20 -3 0 -39 -21 -81 -46z"/>
<path d="M1911 3416 c-68 -148 -76 -149 -161 -25 -34 49 -63 89 -66 89 -3 0
-165 -93 -360 -207 l-354 -206 0 -51 1 -51 220 -268 c122 -148 222 -267 224
-265 1 2 91 194 200 428 109 234 200 427 203 430 3 3 7 -1 9 -8 4 -9 9 -10 17
-3 9 8 46 -40 145 -184 73 -107 136 -197 140 -199 7 -5 235 404 229 410 -8 7
-383 224 -388 224 -3 0 -29 -51 -59 -114z"/>
<path d="M2270 3075 c-105 -197 -130 -235 -130 -204 0 8 -4 8 -14 0 -11 -9
-39 25 -147 184 -73 107 -135 195 -139 195 -10 0 -401 -842 -397 -854 3 -6 59
-77 126 -159 108 -132 137 -177 113 -177 -4 0 -63 68 -131 150 -68 83 -126
150 -130 150 -3 0 -37 -66 -75 -147 -38 -82 -88 -189 -111 -239 l-43 -91 144
-84 c80 -46 148 -84 152 -83 4 0 48 75 98 165 71 129 94 163 108 161 15 -3 17
1 12 22 -5 21 33 98 200 406 114 209 211 380 216 380 23 0 -8 -64 -198 -412
-136 -251 -203 -382 -197 -391 4 -8 86 -109 182 -225 l173 -212 32 19 c17 11
83 49 146 86 63 37 120 72 127 78 6 7 55 92 108 190 l97 179 -35 51 c-19 29
-120 177 -226 331 -176 257 -205 306 -183 306 10 0 12 -3 262 -367 106 -156
196 -283 199 -283 3 0 41 65 84 145 l77 144 0 289 0 289 -187 109 c-103 60
-189 110 -192 111 -3 1 -58 -94 -121 -212z"/>
<path d="M970 2461 l0 -449 92 -54 c51 -29 95 -54 98 -56 3 -1 57 108 120 243
96 207 117 244 132 239 11 -3 18 0 18 9 0 20 -11 28 -25 17 -8 -7 -71 63 -220
245 -114 140 -209 255 -211 255 -2 0 -4 -202 -4 -449z"/>
<path d="M2700 2295 c-49 -89 -70 -119 -83 -117 -18 3 -24 -23 -7 -33 6 -3 10
-1 10 5 0 21 20 -1 70 -76 50 -73 66 -86 76 -61 2 7 3 100 2 207 l-3 195 -65
-120z"/>
<path d="M2587 2088 c-58 -100 -139 -260 -131 -257 33 13 253 145 254 152 0 4
-22 39 -49 77 l-49 70 -25 -42z"/>
<path d="M1610 1864 c-47 -86 -86 -160 -88 -164 -2 -4 76 -54 172 -110 l175
-102 91 52 c50 29 90 56 88 60 -5 15 -340 420 -347 420 -3 0 -44 -70 -91 -156z"/>
<path d="M960 810 l0 -190 35 0 35 0 0 80 0 80 45 0 c41 0 45 2 45 25 0 23 -4
25 -45 25 l-45 0 0 60 0 60 55 0 c52 0 55 1 55 25 0 25 -1 25 -90 25 l-90 0 0
-190z"/>
<path d="M1767 905 c-15 -8 -27 -10 -27 -4 0 5 -13 9 -30 9 l-30 0 0 -145 0
-145 30 0 30 0 0 101 c0 112 9 139 45 139 20 0 25 5 25 24 0 33 -11 38 -43 21z"/>
<path d="M1222 898 c-8 -8 -12 -51 -12 -128 0 -140 6 -150 91 -150 67 0 99 19
99 61 0 25 -4 29 -29 29 -21 0 -30 -6 -34 -21 -4 -16 -12 -20 -34 -17 -24 3
-28 8 -31 41 l-3 37 65 0 66 0 0 61 c0 92 -7 99 -93 99 -44 0 -78 -5 -85 -12z"/>
<path d="M1480 765 l0 -145 35 0 35 0 0 108 c0 111 7 132 42 132 13 0 18 8 18
25 0 27 -26 35 -48 13 -9 -9 -12 -9 -12 0 0 7 -14 12 -35 12 l-35 0 0 -145z"/>
<path d="M1870 765 l0 -145 35 0 35 0 0 145 0 145 -35 0 -35 0 0 -145z"/>
<path d="M2030 764 l0 -144 30 0 29 0 3 118 3 117 28 3 27 3 0 -120 0 -121 30
0 30 0 0 134 c0 96 -4 137 -13 144 -7 6 -47 11 -90 10 l-77 0 0 -144z"/>
<path d="M2312 898 c-8 -8 -12 -51 -12 -129 0 -143 4 -149 94 -149 90 0 96 9
96 144 0 143 -2 146 -93 146 -44 0 -78 -5 -85 -12z"/>
<path d="M2586 853 c38 -84 38 -82 5 -157 -17 -37 -31 -70 -31 -73 0 -2 14 -3
32 -1 27 3 33 9 47 46 8 23 18 42 22 42 3 0 14 -20 23 -45 16 -41 21 -45 52
-45 l34 0 -36 71 c-39 78 -39 77 0 162 l26 57 -33 0 c-29 0 -35 -4 -49 -42
l-16 -43 -18 43 c-15 38 -21 42 -50 42 l-34 0 26 -57z"/>
</g>
</svg>
